<svg width="460" height="168" viewBox="0 0 460 168" fill="none" xmlns="http://www.w3.org/2000/svg">
<path d="M168.379 59.5078C168.379 59.5469 168.359 60.1523 168.32 61.3242C168.32 62.4961 168.301 64.0586 168.262 66.0117C168.262 67.9648 168.242 70.2305 168.203 72.8086C168.203 75.3867 168.184 78.1211 168.145 81.0117C168.105 83.8633 168.066 86.793 168.027 89.8008C168.027 92.8086 168.008 95.7188 167.969 98.5312C167.969 101.305 167.949 103.902 167.91 106.324C167.91 108.746 167.91 110.816 167.91 112.535V116.051C168.457 116.129 168.984 116.168 169.492 116.168C170.039 116.168 170.586 116.168 171.133 116.168C172.773 116.168 174.727 116.012 176.992 115.699C179.297 115.387 181.758 114.723 184.375 113.707C187.031 112.652 189.785 111.148 192.637 109.195C195.527 107.203 198.359 104.527 201.133 101.168C204.453 97.1836 206.816 93.1992 208.223 89.2148C209.668 85.2305 210.391 81.2461 210.391 77.2617C210.391 73.9023 210.039 70.9922 209.336 68.5312C208.633 66.0703 207.637 64 206.348 62.3203C205.098 60.6016 203.594 59.2148 201.836 58.1602C200.117 57.1055 198.203 56.2852 196.094 55.6992C194.023 55.1133 191.797 54.7227 189.414 54.5273C187.07 54.332 184.668 54.2344 182.207 54.2344C180.449 54.2344 178.418 54.4492 176.113 54.8789C173.809 55.3086 171.426 55.8555 168.965 56.5195C166.543 57.1836 164.141 57.8867 161.758 58.6289C159.375 59.3711 157.207 60.0742 155.254 60.7383C153.34 61.4023 151.738 61.9492 150.449 62.3789C149.16 62.8086 148.379 63.0234 148.105 63.0234C147.715 62.6328 147.383 62.2617 147.109 61.9102C146.875 61.6367 146.66 61.3828 146.465 61.1484C146.27 60.9141 146.172 60.7773 146.172 60.7383C146.172 60.6602 146.23 60.5625 146.348 60.4453C146.426 60.3672 146.562 60.2695 146.758 60.1523C146.953 60.0352 147.246 59.9375 147.637 59.8594C147.52 59.625 147.441 59.4687 147.402 59.3906C147.402 59.3125 147.402 59.2344 147.402 59.1562C147.402 59.0391 147.422 58.9219 147.461 58.8047C147.5 58.6875 147.676 58.5703 147.988 58.4531C147.402 58.1797 146.992 57.9453 146.758 57.75C146.523 57.5156 146.367 57.3398 146.289 57.2227C146.25 57.1055 146.25 57.0273 146.289 56.9883C146.328 56.9492 146.348 56.9492 146.348 56.9883C146.348 56.8711 146.426 56.793 146.582 56.7539C146.738 56.7148 146.855 56.5977 146.934 56.4023C146.934 56.3633 147.051 56.1094 147.285 55.6406C147.52 55.1719 148.008 54.625 148.75 54C149.531 53.375 150.625 52.7305 152.031 52.0664C153.438 51.4023 155.332 50.8164 157.715 50.3086C158.535 50.1133 159.648 49.8594 161.055 49.5469C162.461 49.1953 164.082 48.8633 165.918 48.5508C167.793 48.2383 169.824 47.9648 172.012 47.7305C174.199 47.4961 176.484 47.3789 178.867 47.3789C185.391 47.3789 191.172 48.3555 196.211 50.3086C201.25 52.2227 205.469 54.8008 208.867 58.043C212.305 61.2852 214.902 65.0352 216.66 69.293C218.418 73.5508 219.297 78.0039 219.297 82.6523C219.297 85.3867 218.926 88.1992 218.184 91.0898C217.441 93.9805 216.367 96.832 214.961 99.6445C213.594 102.457 211.934 105.172 209.98 107.789C208.027 110.406 205.84 112.809 203.418 114.996C200.996 117.145 198.379 119.039 195.566 120.68C192.793 122.32 189.863 123.57 186.777 124.43C183.691 125.289 180.879 125.895 178.34 126.246C175.84 126.559 173.535 126.715 171.426 126.715C168.613 126.715 166.328 126.559 164.57 126.246C162.812 125.895 161.445 125.523 160.469 125.133C159.531 124.703 158.887 124.293 158.535 123.902C158.223 123.512 158.066 123.258 158.066 123.141C157.832 122.906 157.715 122.535 157.715 122.027C157.754 121.09 157.852 118.395 158.008 113.941C158.086 112.066 158.164 109.703 158.242 106.852C158.359 104 158.477 100.562 158.594 96.5391C158.75 92.4766 158.926 87.7305 159.121 82.3008C159.355 76.8711 159.609 70.6406 159.883 63.6094C159.883 62.7891 160.098 62.2227 160.527 61.9102C160.996 61.5977 161.562 61.3633 162.227 61.207C162.891 61.0508 163.594 60.9141 164.336 60.7969C165.117 60.6406 165.801 60.3281 166.387 59.8594C166.621 59.6641 166.875 59.5078 167.148 59.3906C167.461 59.2344 167.715 59.1562 167.91 59.1562C168.223 59.1562 168.379 59.2734 168.379 59.5078ZM268.281 104.273C268.281 108.375 267.676 112.066 266.465 115.348C265.293 118.629 263.672 121.422 261.602 123.727C259.57 126.031 257.207 127.809 254.512 129.059C251.816 130.309 248.965 130.934 245.957 130.934C244.707 130.934 243.34 130.777 241.855 130.465C240.371 130.191 238.887 129.723 237.402 129.059C235.918 128.395 234.473 127.516 233.066 126.422C231.66 125.328 230.41 123.98 229.316 122.379C228.223 120.777 227.344 118.902 226.68 116.754C226.055 114.605 225.762 112.125 225.801 109.312C225.801 106.109 226.191 103.199 226.973 100.582C227.754 97.9258 228.75 95.5625 229.961 93.4922C231.211 91.3828 232.617 89.5664 234.18 88.043C235.742 86.5195 237.305 85.25 238.867 84.2344C240.43 83.1797 241.934 82.3984 243.379 81.8906C244.824 81.3828 246.074 81.0898 247.129 81.0117C247.676 80.9727 247.91 81.0312 247.832 81.1875C247.793 81.3438 247.656 81.5195 247.422 81.7148C247.188 81.9102 246.973 82.1055 246.777 82.3008C246.621 82.4961 246.699 82.6133 247.012 82.6523C247.285 82.7305 247.5 82.8086 247.656 82.8867C247.852 82.9648 248.047 83.0625 248.242 83.1797L248.711 82.6523C248.984 82.457 249.238 82.3594 249.473 82.3594C249.746 82.3594 249.98 82.3984 250.176 82.4766C250.371 82.5156 250.527 82.5352 250.645 82.5352C250.762 82.5352 250.84 82.418 250.879 82.1836C250.957 81.7539 251.094 81.5195 251.289 81.4805C251.523 81.4023 252.031 81.3633 252.812 81.3633C253.281 81.3633 253.984 81.5 254.922 81.7734C255.898 82.0469 256.953 82.5156 258.086 83.1797C259.258 83.8438 260.43 84.7422 261.602 85.875C262.812 86.9688 263.906 88.375 264.883 90.0938C265.898 91.7734 266.719 93.7852 267.344 96.1289C267.969 98.4727 268.281 101.188 268.281 104.273ZM247.129 87.1055C245.762 87.9258 244.414 89.0391 243.086 90.4453C241.758 91.8516 240.547 93.4727 239.453 95.3086C238.398 97.1445 237.539 99.1953 236.875 101.461C236.211 103.727 235.879 106.109 235.879 108.609C235.879 111.305 236.113 113.746 236.582 115.934C237.09 118.121 237.812 119.996 238.75 121.559C239.688 123.082 240.82 124.273 242.148 125.133C243.516 125.953 245.059 126.363 246.777 126.363C248.301 126.363 249.805 125.934 251.289 125.074C252.812 124.215 254.16 122.926 255.332 121.207C256.504 119.488 257.441 117.359 258.145 114.82C258.887 112.281 259.258 109.332 259.258 105.973C259.258 102.574 258.809 99.7227 257.91 97.418C257.012 95.1133 255.996 93.2578 254.863 91.8516C253.77 90.4062 252.715 89.3906 251.699 88.8047C250.684 88.1797 250.059 87.8672 249.824 87.8672C249.277 87.8672 248.848 87.8672 248.535 87.8672C248.262 87.8672 247.793 87.6133 247.129 87.1055ZM313.047 82.9453C313.164 83.1797 313.223 83.4141 313.223 83.6484C313.262 83.8828 313.281 84.1562 313.281 84.4688C313.281 85.7188 312.617 87.0273 311.289 88.3945C310 89.7617 307.949 91.0117 305.137 92.1445C304.551 92.3789 304.023 92.4961 303.555 92.4961C302.969 92.4961 302.461 92.3398 302.031 92.0273C301.641 91.6758 301.445 91.3242 301.445 90.9727C301.445 90.7383 301.582 90.4648 301.855 90.1523C302.168 89.8398 302.48 89.5273 302.793 89.2148C303.145 88.9023 303.457 88.6094 303.73 88.3359C304.043 88.0625 304.199 87.8477 304.199 87.6914C304.199 87.3789 303.945 87.2227 303.438 87.2227C302.656 87.2227 301.66 87.457 300.449 87.9258C299.238 88.3555 297.949 88.9414 296.582 89.6836C295.254 90.3867 293.887 91.168 292.48 92.0273C291.113 92.8477 289.883 93.668 288.789 94.4883C287.695 95.2695 286.797 95.9727 286.094 96.5977C285.43 97.2227 285.098 97.6719 285.098 97.9453C285.098 98.1016 285.254 98.1797 285.566 98.1797H287.266C288.32 98.1797 289.668 98.2383 291.309 98.3555C292.988 98.4727 294.746 98.707 296.582 99.0586C298.418 99.3711 300.254 99.8398 302.09 100.465C303.965 101.051 305.625 101.852 307.07 102.867C308.555 103.883 309.766 105.113 310.703 106.559C311.641 108.004 312.109 109.723 312.109 111.715C312.109 112.73 311.934 113.824 311.582 114.996C311.27 116.129 310.684 117.301 309.824 118.512C309.004 119.684 307.871 120.895 306.426 122.145C304.98 123.355 303.145 124.566 300.918 125.777C297.559 127.574 294.414 128.902 291.484 129.762C288.594 130.621 285.977 131.051 283.633 131.051C280.586 131.051 278.184 130.367 276.426 129C274.668 127.633 273.789 125.68 273.789 123.141C273.789 121.266 274.141 119.664 274.844 118.336C275.586 117.008 276.445 115.914 277.422 115.055C278.398 114.156 279.375 113.512 280.352 113.121C281.328 112.691 282.07 112.457 282.578 112.418C282.812 112.418 283.008 112.398 283.164 112.359C283.359 112.32 283.555 112.301 283.75 112.301C284.102 112.301 284.277 112.516 284.277 112.945V113.531C284.277 113.766 284.336 113.98 284.453 114.176C284.57 114.332 284.629 114.508 284.629 114.703C284.629 114.938 284.336 115.289 283.75 115.758C283.203 116.227 282.598 116.773 281.934 117.398C281.27 118.023 280.645 118.688 280.059 119.391C279.512 120.094 279.238 120.777 279.238 121.441C279.238 122.223 279.863 122.613 281.113 122.613C282.676 122.613 284.316 122.32 286.035 121.734C287.793 121.109 289.492 120.328 291.133 119.391C292.812 118.453 294.395 117.398 295.879 116.227C297.402 115.016 298.73 113.844 299.863 112.711C300.996 111.578 301.895 110.523 302.559 109.547C303.223 108.531 303.555 107.73 303.555 107.145C303.555 106.441 303.145 105.875 302.324 105.445C301.543 105.016 300.449 104.664 299.043 104.391C297.676 104.117 296.074 103.941 294.238 103.863C292.402 103.746 290.469 103.688 288.438 103.688C286.328 103.688 284.57 103.785 283.164 103.98C281.797 104.176 280.957 104.273 280.645 104.273C280.41 104.273 280.02 104.254 279.473 104.215C278.965 104.137 278.438 103.961 277.891 103.688C277.383 103.375 276.934 102.926 276.543 102.34C276.152 101.754 275.957 100.914 275.957 99.8203C275.957 99.0781 276.113 98.2383 276.426 97.3008C276.777 96.3633 277.363 95.3672 278.184 94.3125C279.043 93.2188 280.195 92.0469 281.641 90.7969C283.125 89.5469 285 88.2383 287.266 86.8711C289.648 85.4258 291.875 84.2539 293.945 83.3555C296.055 82.418 297.949 81.6953 299.629 81.1875C301.348 80.6797 302.852 80.3477 304.141 80.1914C305.43 79.9961 306.445 79.8984 307.188 79.8984C308.945 79.8984 310.254 80.1328 311.113 80.6016C311.973 81.0312 312.617 81.8125 313.047 82.9453ZM353.887 89.625C353.965 90.1719 354.023 90.7969 354.062 91.5C354.102 92.1641 354.121 92.8672 354.121 93.6094C354.121 95.4844 354.043 97.6719 353.887 100.172C353.73 102.672 353.535 105.641 353.301 109.078C353.223 110.406 353.164 112.105 353.125 114.176C353.086 116.207 353.066 118.316 353.066 120.504C353.066 122.379 353.086 124.195 353.125 125.953C353.203 127.711 353.301 129.254 353.418 130.582C353.496 131.168 353.359 131.48 353.008 131.52C352.656 131.559 352.266 131.52 351.836 131.402C351.641 131.324 351.465 131.324 351.309 131.402C351.152 131.48 350.996 131.578 350.84 131.695C350.723 131.812 350.586 131.891 350.43 131.93C350.312 132.008 350.137 131.949 349.902 131.754C349.707 131.598 349.375 131.363 348.906 131.051C348.438 130.738 347.93 130.387 347.383 129.996C346.875 129.645 346.387 129.254 345.918 128.824C345.449 128.395 345.098 128.004 344.863 127.652C344.629 127.105 344.473 125.758 344.395 123.609C344.316 121.461 344.277 118.863 344.277 115.816V107.906C344.316 106.188 344.395 104.488 344.512 102.809C344.629 101.129 344.766 99.5078 344.922 97.9453C345.078 96.3828 345.215 94.918 345.332 93.5508C345.449 92.1445 345.508 90.875 345.508 89.7422C345.508 87.9453 345.254 86.5977 344.746 85.6992C344.629 85.543 344.277 85.6406 343.691 85.9922C343.105 86.3438 342.344 87.0859 341.406 88.2188C340.508 89.3516 339.473 90.9531 338.301 93.0234C337.168 95.0938 335.957 97.7695 334.668 101.051C333.418 104.332 332.129 108.297 330.801 112.945C329.512 117.594 328.281 123.062 327.109 129.352C326.992 129.898 326.836 130.27 326.641 130.465C326.484 130.699 326.172 130.816 325.703 130.816C325.391 130.816 325.117 130.562 324.883 130.055C324.688 129.586 324.434 129.195 324.121 128.883C323.379 128.883 322.695 128.805 322.07 128.648C321.484 128.453 321.133 127.965 321.016 127.184C321.016 126.91 320.938 126.656 320.781 126.422C320.664 126.188 320.508 125.934 320.312 125.66C320.156 125.348 320 125.035 319.844 124.723C319.727 124.371 319.668 123.961 319.668 123.492C319.785 120.758 319.883 117.789 319.961 114.586C320.039 111.344 320.117 108.043 320.195 104.684C320.312 101.285 320.41 97.8867 320.488 94.4883C320.566 91.0898 320.664 87.8477 320.781 84.7617C320.898 81.6367 320.996 78.7461 321.074 76.0898C321.191 73.3945 321.328 71.0703 321.484 69.1172C321.953 63.2969 322.422 58.7266 322.891 55.4062C323.359 52.0469 323.652 50.0937 323.77 49.5469C323.887 49.1562 324.004 48.8633 324.121 48.668C324.238 48.4727 324.336 48.3359 324.414 48.2578C324.531 48.1797 324.609 48.1211 324.648 48.082C324.727 48.043 324.785 47.9453 324.824 47.7891C324.902 47.6328 325.039 47.5547 325.234 47.5547C325.469 47.5156 325.723 47.5156 325.996 47.5547C326.27 47.5547 326.523 47.5547 326.758 47.5547C326.992 47.5156 327.188 47.418 327.344 47.2617C327.656 47.0273 327.91 46.832 328.105 46.6758C328.34 46.5195 328.73 46.4414 329.277 46.4414C329.941 46.3633 330.449 46.3828 330.801 46.5C331.152 46.5781 331.367 46.9492 331.445 47.6133C331.562 48.8242 331.602 50.4063 331.562 52.3594C331.523 54.3125 331.426 56.4609 331.27 58.8047C331.113 61.1484 330.938 63.6289 330.742 66.2461C330.547 68.8242 330.332 71.3633 330.098 73.8633C329.902 76.3633 329.707 78.7461 329.512 81.0117C329.355 83.2383 329.238 85.1523 329.16 86.7539C329.082 87.6523 329.023 88.7461 328.984 90.0352C328.984 91.2852 328.984 92.6523 328.984 94.1367C328.984 95.582 328.984 97.1055 328.984 98.707C328.984 100.27 328.965 101.812 328.926 103.336C330.137 99.5859 331.445 96.3242 332.852 93.5508C334.258 90.7383 335.664 88.3945 337.07 86.5195C338.477 84.6445 339.824 83.2188 341.113 82.2422C342.441 81.2656 343.613 80.6992 344.629 80.543C344.863 80.5039 345.273 80.5625 345.859 80.7188C346.484 80.875 347.129 81.0508 347.793 81.2461C348.457 81.4414 349.062 81.6562 349.609 81.8906C350.156 82.0859 350.469 82.2227 350.547 82.3008C350.703 82.4961 350.938 82.7695 351.25 83.1211C351.562 83.4336 351.875 83.8633 352.188 84.4102C352.539 84.957 352.852 85.6602 353.125 86.5195C353.438 87.3789 353.691 88.4141 353.887 89.625ZM404.922 104.273C404.922 108.375 404.316 112.066 403.105 115.348C401.934 118.629 400.312 121.422 398.242 123.727C396.211 126.031 393.848 127.809 391.152 129.059C388.457 130.309 385.605 130.934 382.598 130.934C381.348 130.934 379.98 130.777 378.496 130.465C377.012 130.191 375.527 129.723 374.043 129.059C372.559 128.395 371.113 127.516 369.707 126.422C368.301 125.328 367.051 123.98 365.957 122.379C364.863 120.777 363.984 118.902 363.32 116.754C362.695 114.605 362.402 112.125 362.441 109.312C362.441 106.109 362.832 103.199 363.613 100.582C364.395 97.9258 365.391 95.5625 366.602 93.4922C367.852 91.3828 369.258 89.5664 370.82 88.043C372.383 86.5195 373.945 85.25 375.508 84.2344C377.07 83.1797 378.574 82.3984 380.02 81.8906C381.465 81.3828 382.715 81.0898 383.77 81.0117C384.316 80.9727 384.551 81.0312 384.473 81.1875C384.434 81.3438 384.297 81.5195 384.062 81.7148C383.828 81.9102 383.613 82.1055 383.418 82.3008C383.262 82.4961 383.34 82.6133 383.652 82.6523C383.926 82.7305 384.141 82.8086 384.297 82.8867C384.492 82.9648 384.688 83.0625 384.883 83.1797L385.352 82.6523C385.625 82.457 385.879 82.3594 386.113 82.3594C386.387 82.3594 386.621 82.3984 386.816 82.4766C387.012 82.5156 387.168 82.5352 387.285 82.5352C387.402 82.5352 387.48 82.418 387.52 82.1836C387.598 81.7539 387.734 81.5195 387.93 81.4805C388.164 81.4023 388.672 81.3633 389.453 81.3633C389.922 81.3633 390.625 81.5 391.562 81.7734C392.539 82.0469 393.594 82.5156 394.727 83.1797C395.898 83.8438 397.07 84.7422 398.242 85.875C399.453 86.9688 400.547 88.375 401.523 90.0938C402.539 91.7734 403.359 93.7852 403.984 96.1289C404.609 98.4727 404.922 101.188 404.922 104.273ZM383.77 87.1055C382.402 87.9258 381.055 89.0391 379.727 90.4453C378.398 91.8516 377.188 93.4727 376.094 95.3086C375.039 97.1445 374.18 99.1953 373.516 101.461C372.852 103.727 372.52 106.109 372.52 108.609C372.52 111.305 372.754 113.746 373.223 115.934C373.73 118.121 374.453 119.996 375.391 121.559C376.328 123.082 377.461 124.273 378.789 125.133C380.156 125.953 381.699 126.363 383.418 126.363C384.941 126.363 386.445 125.934 387.93 125.074C389.453 124.215 390.801 122.926 391.973 121.207C393.145 119.488 394.082 117.359 394.785 114.82C395.527 112.281 395.898 109.332 395.898 105.973C395.898 102.574 395.449 99.7227 394.551 97.418C393.652 95.1133 392.637 93.2578 391.504 91.8516C390.41 90.4062 389.355 89.3906 388.34 88.8047C387.324 88.1797 386.699 87.8672 386.465 87.8672C385.918 87.8672 385.488 87.8672 385.176 87.8672C384.902 87.8672 384.434 87.6133 383.77 87.1055ZM426.191 79.7812C426.113 80.0547 426.055 80.6016 426.016 81.4219C425.977 82.2422 425.918 83.2578 425.84 84.4688C427.52 84 429.238 83.6289 430.996 83.3555C432.754 83.082 434.551 82.9453 436.387 82.9453C438.418 82.9453 440.449 83.1797 442.48 83.6484C444.512 84.0781 446.406 84.8398 448.164 85.9336C449.531 86.7539 450.684 88.0625 451.621 89.8594C452.598 91.6562 453.398 93.5898 454.023 95.6602C454.375 96.8711 454.727 98.2188 455.078 99.7031C455.43 101.148 455.605 102.75 455.605 104.508C455.605 105.992 455.41 107.535 455.02 109.137C454.668 110.738 454.023 112.398 453.086 114.117C452.148 115.797 450.879 117.535 449.277 119.332C447.676 121.09 445.625 122.867 443.125 124.664C440.703 126.422 438.535 127.77 436.621 128.707C434.746 129.605 433.145 130.23 431.816 130.582C430.488 130.934 429.453 131.09 428.711 131.051C428.008 131.051 427.598 131.012 427.48 130.934C427.129 130.699 426.777 130.25 426.426 129.586C426.074 128.961 425.586 128.277 424.961 127.535C424.766 127.301 424.59 127.066 424.434 126.832C424.277 126.559 424.102 126.246 423.906 125.895C423.789 129.645 423.691 133.316 423.613 136.91C423.574 140.504 423.555 143.863 423.555 146.988C423.555 148.941 423.574 150.758 423.613 152.438C423.652 154.156 423.711 155.699 423.789 157.066C423.789 157.574 423.809 158.062 423.848 158.531C423.926 159.039 423.945 159.488 423.906 159.879C423.906 160.27 423.828 160.582 423.672 160.816C423.516 161.051 423.223 161.168 422.793 161.168C422.012 161.168 421.406 161.344 420.977 161.695C420.586 162.086 420.117 162.672 419.57 163.453C419.258 163.805 418.926 164.059 418.574 164.215C418.223 164.41 417.852 164.41 417.461 164.215C417.109 164.059 416.738 163.688 416.348 163.102C415.996 162.555 415.664 161.715 415.352 160.582C415.234 160.113 415.117 159.488 415 158.707C414.922 157.965 414.844 157.008 414.766 155.836C414.727 154.703 414.688 153.316 414.648 151.676C414.648 150.074 414.648 148.16 414.648 145.934L414.883 125.66C414.961 120.543 415.156 115.562 415.469 110.719C415.781 105.875 416.152 101.324 416.582 97.0664C415.605 97.457 414.707 97.75 413.887 97.9453C413.066 98.1406 412.559 98.1797 412.363 98.0625C411.973 97.9062 411.719 97.7305 411.602 97.5352C411.484 97.3398 411.406 97.1641 411.367 97.0078C411.328 96.8125 411.27 96.6562 411.191 96.5391C411.152 96.3828 410.996 96.2852 410.723 96.2461C410.449 96.207 410.215 96.0898 410.02 95.8945C409.824 95.6992 409.688 95.5039 409.609 95.3086C409.57 95.1133 409.59 94.9375 409.668 94.7812C409.785 94.5859 410 94.4688 410.312 94.4297C410.586 94.3906 410.625 94.293 410.43 94.1367C410.234 93.9414 410.039 93.707 409.844 93.4336C409.688 93.1211 409.648 92.75 409.727 92.3203C409.805 91.8516 410.293 91.3242 411.191 90.7383C411.66 90.3477 412.48 89.8594 413.652 89.2734C414.824 88.6484 416.23 87.9648 417.871 87.2227C418.301 84.1758 418.73 81.6953 419.16 79.7812C419.629 77.8281 420.039 76.6367 420.391 76.207C420.586 76.0117 420.723 75.8359 420.801 75.6797C420.879 75.5234 420.957 75.3867 421.035 75.2695C421.113 75.1523 421.211 75.0547 421.328 74.9766C421.445 74.8984 421.66 74.8203 421.973 74.7422C422.246 74.7031 422.48 74.7617 422.676 74.918C422.871 75.0742 423.047 75.2891 423.203 75.5625C423.398 75.7969 423.594 76.0312 423.789 76.2656C423.984 76.5 424.219 76.6367 424.492 76.6758C425.039 76.7539 425.469 77.0469 425.781 77.5547C426.133 78.0234 426.27 78.7656 426.191 79.7812ZM437.441 91.207C435.684 91.207 433.809 91.4023 431.816 91.793C429.824 92.1836 427.617 92.8281 425.195 93.7266L424.141 119.156C424.492 119.273 424.883 119.352 425.312 119.391C425.742 119.391 426.23 119.391 426.777 119.391C428.066 119.391 429.551 119.215 431.23 118.863C432.949 118.512 434.688 117.984 436.445 117.281C438.203 116.539 439.941 115.66 441.66 114.645C443.379 113.59 444.902 112.379 446.23 111.012C447.598 109.645 448.691 108.121 449.512 106.441C450.332 104.762 450.762 102.926 450.801 100.934C450.84 99.7617 450.566 98.6094 449.98 97.4766C449.434 96.3047 448.594 95.25 447.461 94.3125C446.367 93.375 444.98 92.6328 443.301 92.0859C441.621 91.5 439.668 91.207 437.441 91.207Z" fill="black"/>
<path d="M121.958 133.285L115.054 44.5041L115.05 44.4339C114.781 41.5041 113.411 38.8017 111.185 36.8182C108.954 34.8306 106.06 33.7438 103.038 33.7438H92.1579V30.7686C92.1579 22.5496 88.8633 14.8264 82.8871 9.0124C76.911 3.20248 68.9597 0 60.5062 0C52.0613 0 44.1185 3.19422 38.1424 8.99587C32.1662 14.7975 28.8674 22.5124 28.8503 30.7231L28.7652 87.4174H28.812C28.7354 88.3223 28.6971 89.2355 28.6971 90.157C28.6971 98.8554 32.1832 107.037 38.5084 113.186C44.8379 119.335 53.2531 122.723 62.2046 122.723C71.1519 122.723 79.567 119.335 85.8965 113.186C92.226 107.033 95.7078 98.8554 95.7078 90.157C95.7078 81.4545 92.2217 73.2769 85.8965 67.1281C79.5628 60.9752 71.1519 57.5868 62.2046 57.5868C54.0533 57.5868 46.3447 60.3967 40.2536 65.5454L40.3047 30.7438C40.3217 19.938 49.3796 11.1446 60.502 11.1446C71.6371 11.1446 80.695 19.9504 80.695 30.7727V33.7479H55.6793C52.5125 33.7479 49.9458 36.2479 49.95 39.3264C49.9543 42.3967 52.5167 44.8843 55.6793 44.8843H103.033C103.34 44.8843 103.595 45.1074 103.629 45.4008L110.533 134.157L110.538 134.227C110.55 134.376 110.508 134.525 110.41 134.64C110.291 134.785 110.129 134.859 109.942 134.859H12.0583C11.9093 134.859 11.756 134.81 11.6454 134.707C11.5049 134.574 11.4411 134.413 11.4581 134.227L11.4623 134.194L18.5452 39.7231C18.7879 36.4959 16.1573 33.7479 12.8287 33.7479C9.82783 33.7479 7.3335 36 7.11642 38.9091L0.0420421 133.289C-0.23889 136.545 0.897607 139.789 3.16634 142.194C5.44785 144.612 8.68708 146 12.0583 146H109.942C113.313 146 116.552 144.612 118.834 142.194C121.102 139.785 122.239 136.541 121.958 133.285ZM62.2046 68.7149C74.3655 68.7149 84.2535 78.3306 84.2535 90.1529C84.2535 101.971 74.3655 111.587 62.2046 111.587C50.0394 111.587 40.1514 101.971 40.1514 90.1529C40.1514 78.3306 50.0394 68.7149 62.2046 68.7149Z" fill="black"/>
</svg>
